# This file uses centimeters as units for non-parametric coordinates.

mtllib bush.mtl
g default
v 0.258726 -1.273963 -0.440221
v -0.317957 -1.273963 -0.548406
v -0.759465 -1.273963 0.513633
v 0.262866 -1.273963 0.965002
v 0.932886 -1.273963 -0.177685
v 0.000000 -0.995579 0.155985
v -0.116710 -1.273963 0.113120
v 0.024973 -1.273963 -0.061399
v 0.210730 -1.273963 -0.014442
v 0.302691 -1.273963 0.253852
v -0.052488 -1.273963 0.375445
v -0.109045 -1.121748 -0.072999
v -0.364912 -1.170853 0.354638
v 0.087966 -1.159293 0.454784
v 0.328651 -1.191761 0.124349
v 0.124734 -1.157043 -0.158837
v 0.043983 -1.114173 0.305385
v 0.207844 -1.134771 0.231006
v 0.180480 -1.140050 0.155985
v 0.126523 -1.134771 0.090062
v 0.062367 -1.113048 -0.001426
v -0.005839 -1.134771 -0.011555
v -0.085787 -1.095401 -0.024657
v -0.114853 -1.134771 0.122724
v -0.182456 -1.119953 0.255312
v -0.065440 -1.134771 0.324563
v -0.016044 0.572398 -0.371105
v 0.308942 0.805777 0.306631
v -0.366293 0.729598 -0.001439
v -0.566186 -0.930841 0.673766
v -0.577541 -0.708189 0.879588
v -0.168328 -1.253459 0.249460
v 0.731672 -1.118179 -0.174485
v -0.300768 -0.475244 -0.824368
v -0.850315 0.100936 -0.217669
v -0.751740 0.322198 0.435682
v 0.700671 0.170115 0.782963
v 0.868505 -0.215147 0.462663
v 0.897979 -0.628054 0.200308
v 0.813555 -0.828265 -0.138141
v 0.520608 -1.219697 -0.095632
v -0.409636 0.241552 -0.680478
v -0.686353 0.511086 0.190572
v -0.460985 0.420755 0.714282
v -0.154936 0.391724 0.918374
v 0.755077 0.305068 0.606716
v 0.805617 0.159162 0.638006
v 0.977578 0.056042 0.380603
v 0.819367 -0.835161 -0.181902
v -0.344848 0.714668 0.251493
v -0.304953 0.698325 0.504014
v -0.318720 0.420391 0.865429
v 0.480059 0.660321 0.432138
v 0.519374 0.713181 0.206161
v 0.935734 0.240701 0.188479
v 0.828308 -0.491488 -0.533820
v 0.072243 0.761823 0.011550
v 0.447831 0.687604 -0.041578
v 0.687641 0.101564 -0.642110
v 0.929872 -0.373233 -0.409508
v 1.041618 -0.184039 -0.299537
v 0.105414 0.820435 0.278034
v 0.054653 0.547395 -0.524845
v 0.949320 0.066584 -0.488786
v 1.030661 0.098753 -0.084084
v 0.843309 0.263428 -0.336468
v 0.725826 0.544840 0.112972
v 0.602650 0.575948 -0.067707
v 0.403282 0.736179 0.077247
v -0.106925 0.509744 -0.626515
v 0.956868 -0.066116 -0.407907
v 0.680655 0.375378 -0.378820
v 0.530254 0.511450 -0.338311
v -0.545327 0.603471 -0.132409
v 0.429531 -0.677250 -0.629117
v 1.002862 -0.527928 -0.105198
v 1.064541 -0.199681 0.081535
v 0.905138 0.250258 0.344980
v 0.579263 0.547584 0.519246
v 0.724725 0.468987 0.334777
v 1.015016 0.105392 0.116183
v 1.023240 -0.353134 -0.114314
v 0.895348 -0.559588 -0.265019
v 0.256413 0.543878 -0.257368
v -0.629404 0.575422 0.205483
v -0.403977 0.524992 -0.438318
v -0.665000 0.164801 -0.512202
v 0.324980 -0.186438 -0.841091
v -0.012370 -0.473038 -0.844219
v 0.171064 -1.003018 -0.600184
v 0.590100 -1.004072 -0.342019
v -0.471533 -0.205403 1.030521
v -0.512382 -1.169285 -0.016825
v -0.630982 -1.007376 -0.328075
v -0.699713 -0.611471 0.647156
v -0.650247 -0.788003 0.463435
v -0.275517 -0.344261 1.055939
v 0.023656 -0.533358 1.071045
v 0.232339 -0.815247 0.998279
v -0.364114 -1.246054 0.249098
v -0.319477 -1.225244 -0.110622
v -0.071413 -1.192488 0.613533
v -0.509138 -1.073547 0.388033
v -0.108956 -1.092709 0.744512
v -0.772640 -0.733880 -0.123674
v 0.268342 -1.081090 0.729562
v 0.287106 -0.105546 1.103699
v 0.043092 -0.256624 1.088949
v -0.222319 -0.108692 1.077311
v -0.845458 -0.389838 0.638801
v -0.251399 0.056577 1.028534
v -0.620966 -0.046960 0.859208
v -0.782275 0.124301 0.619117
v -0.358750 -0.792948 -0.697006
v -0.299380 -0.997054 -0.569684
v 0.208170 -1.219785 -0.246780
v -0.497443 0.311107 0.757275
v 0.872642 -0.789111 0.201282
v 0.427207 -1.117029 0.401604
v 0.222828 -1.178586 0.248692
v 0.512773 -1.044958 0.529878
v 0.773093 -0.848780 0.554936
v 0.529004 -0.660537 0.893867
v 0.416614 -0.575311 0.992691
v -0.032526 0.060854 1.087718
v 0.162092 0.355962 0.962814
v -0.100256 0.178930 1.043564
v -0.301101 0.270067 1.012727
v -0.425586 0.152311 0.918692
v -0.977315 -0.221093 -0.024909
v -0.602997 -0.170427 -0.678356
v -0.679143 -0.479711 -0.639362
v 0.566570 -0.152438 0.999958
v 0.735385 -0.534550 0.796472
v 0.885173 -0.542922 0.566947
v 0.886949 -0.708354 0.585564
v 0.686529 -0.980404 0.485016
v 0.671259 -1.049796 0.375572
v 0.678577 -0.627493 0.811104
v 0.567398 -0.531585 0.911865
v 0.612044 -0.492530 0.924071
v 0.799969 -1.027290 0.102979
v 0.866132 -0.035765 0.703063
v -0.383092 0.390611 0.828536
v 0.188948 -1.174914 -0.502142
v 0.384075 -0.915397 0.788635
vt 0.577254 0.012236
vt 0.297746 0.103054
vt 0.297746 0.396946
vt 0.577254 0.487764
vt 0.750000 0.250000
vt 0.250000 0.500000
vt 0.350000 0.500000
vt 0.450000 0.500000
vt 0.550000 0.500000
vt 0.650000 0.500000
vt 0.750000 0.500000
vt 0.500000 1.000000
vt 0.400000 0.500000
vt 0.297746 0.250000
vt 0.300000 0.500000
vt 0.437500 0.057645
vt 0.700000 0.500000
vt 0.663627 0.131118
vt 0.600000 0.500000
vt 0.663627 0.368882
vt 0.500000 0.500000
vt 0.437500 0.442355
vt 0.470167 0.900558
vt 0.481104 0.811038
vt 0.512822 0.871781
vt 0.542300 0.859000
vt 0.583690 0.832621
vt 0.416310 0.832621
vt 0.506411 0.935890
vt 0.550000 0.750000
vt 0.523229 0.922569
vt 0.600000 0.750000
vt 0.541845 0.916310
vt 0.458155 0.916310
vt 0.400000 0.750000
vt 0.485084 0.950279
vt 0.450000 0.750000
vt 0.490552 0.905519
vt 0.500000 0.750000
vn -0.344792 -0.932890 -0.104095
vn 0.267967 -0.926511 -0.264143
vn -0.107727 -0.968198 0.225803
vn -0.443012 0.872040 -0.208054
vn 0.089835 -0.933440 -0.347303
vn -0.440879 -0.547856 -0.710971
vn -0.573964 0.815894 0.069872
vn -0.170363 0.668066 0.724337
vn -0.066348 0.993367 0.093911
vn 0.545504 0.771797 0.326735
vn 0.491253 0.816331 -0.303766
vn 0.573284 0.752092 -0.325121
vn -0.819142 0.425137 -0.385051
vn 0.356282 0.838674 -0.411933
vn -0.033943 0.611934 -0.790180
vn 0.197171 0.801498 0.564557
vn 0.536487 -0.652043 -0.535744
vn 0.311334 -0.935090 0.169348
vn 0.082541 -0.978564 -0.188681
vn 0.292345 -0.937430 0.189104
vn -0.207012 -0.975839 0.069894
vn -0.605500 0.645965 -0.464865
vn -0.273436 0.958308 0.082933
vn 0.074633 0.954162 0.289835
vn 0.216135 0.975611 -0.038333
vn 0.135751 0.909711 -0.392426
vn -0.704584 -0.557197 -0.439424
vn -0.940572 -0.295080 -0.168082
vn -0.403350 -0.449632 -0.796957
vn -0.353731 -0.681821 -0.640308
vn 0.011152 -0.984435 -0.175394
vn 0.057483 -0.997448 0.042347
vn -0.251185 -0.958568 0.134362
vn -0.205749 -0.947962 -0.242973
vn -0.582549 -0.802369 -0.129770
vn -0.680190 -0.672865 0.290851
vn -0.753541 -0.212596 -0.622076
vn -0.608227 0.135957 -0.782034
vn -0.278532 0.312306 -0.908232
vn -0.240856 -0.129680 -0.961858
vn -0.856347 0.515079 -0.036932
vn -0.909611 0.307785 -0.279062
vn -0.996624 -0.043534 -0.069605
vn -0.876493 0.440698 0.193765
vn -0.300118 0.901158 0.312801
vn -0.616503 0.648030 0.447193
vn -0.596993 0.552292 0.581870
vn -0.092433 0.809044 0.580434
vn 0.764806 0.345791 0.543599
vn 0.491696 0.454902 0.742495
vn 0.474383 0.201210 0.857015
vn 0.849271 0.047974 0.525773
vn 0.952800 -0.081480 0.292461
vn 0.966932 -0.209128 0.145976
vn 0.983050 -0.075730 0.166969
vn 0.948846 -0.070048 0.307872
vn 0.781374 -0.621086 0.060874
vn 0.642729 -0.726703 -0.242491
vn 0.920720 -0.334433 -0.201070
vn 0.932679 -0.358026 0.043895
vn 0.432230 -0.862822 0.262136
vn 0.234747 -0.972014 0.009046
vn 0.049004 -0.823971 -0.564508
vn 0.254410 0.121911 -0.959382
vn 0.077859 -0.107749 -0.991125
vn -0.664993 0.721960 0.191202
vn -0.325373 0.933340 0.151687
vn 0.106776 0.735775 0.668755
vn 0.291299 0.568906 0.769084
vn 0.536993 0.663227 0.521315
vn 0.355107 0.775734 0.521666
vn 0.665452 -0.448036 -0.597024
vn 0.874033 -0.349390 -0.337628
vn 0.940306 -0.336969 -0.047710
vn 0.508094 -0.443176 -0.738536
vn 0.222435 -0.434625 -0.872711
vn 0.440421 -0.333261 -0.833647
vn -0.186522 0.964243 -0.188269
vn -0.511299 0.804441 -0.302405
vn 0.233394 0.816877 0.527485
vn 0.563250 0.823994 0.061515
vn 0.285343 0.937982 -0.196899
vn 0.126534 0.865988 0.483790
vn 0.719853 0.660232 0.214255
vn 0.812389 0.516207 0.271208
vn 0.805337 0.592531 -0.018421
vn 0.719460 0.688602 -0.090578
vn 0.939950 0.077213 0.332463
vn 0.960569 0.261031 0.095762
vn 0.874057 -0.233060 -0.426271
vn 0.529024 -0.250652 -0.810745
vn 0.342202 0.300810 -0.890175
vn 0.141144 0.867188 -0.477560
vn 0.004875 0.568737 -0.822505
vn -0.457487 0.684885 -0.567132
vn -0.005578 0.921829 -0.387556
vn 0.045406 0.961789 -0.270000
vn 0.112778 0.932478 -0.343171
vn 0.945947 0.072782 -0.316048
vn 0.967357 -0.040941 -0.250087
vn 0.929905 0.351187 -0.109293
vn 0.982382 -0.173475 -0.069512
vn 0.019343 0.926241 0.376436
vn 0.362668 0.773416 -0.519903
vn 0.616374 0.167630 -0.769404
vn 0.733397 0.604681 -0.310628
vn 0.445330 0.610580 -0.654884
vn 0.494491 0.812807 -0.307934
vn 0.211157 0.891332 -0.401173
vn -0.752838 0.435539 -0.493499
vn 0.141739 -0.977567 0.155799
vn -0.879645 -0.304375 0.365487
vn -0.484881 -0.373578 0.790778
vn -0.514906 -0.090802 0.852424
vn -0.694820 0.118664 0.709327
vn -0.186538 -0.697381 0.692000
vn -0.160483 -0.291762 0.942932
vn -0.618549 -0.673689 0.404401
vn -0.874015 -0.462858 0.147856
vn -0.925306 -0.187500 0.329626
vn -0.004267 -0.448924 0.893560
vn -0.142709 -0.307804 0.940686
vn -0.048345 -0.939627 0.338769
vn 0.247636 -0.827151 0.504477
vn 0.396590 -0.623725 0.673561
vn 0.560653 -0.658844 0.501590
vn 0.382410 -0.821725 0.422529
vn 0.664458 -0.574306 0.478192
vn 0.502434 -0.499455 0.705766
vn 0.288957 -0.210477 0.933918
vn 0.053579 -0.078005 0.995512
vn 0.255428 0.246141 0.934971
vn 0.150731 0.212201 0.965531
vn -0.139146 0.029292 0.989839
vn -0.922707 0.125314 0.364566
vn -0.358749 0.178677 0.916173
vn -0.559148 0.329197 0.760909
vn -0.722737 0.411903 0.554967
vn -0.337306 0.347280 0.874998
vn 0.810446 -0.076443 0.580805
vn 0.875754 -0.340700 0.342022
vn 0.222969 -0.945891 0.235746
vn 0.095598 0.278040 0.955801
vn 0.567675 -0.136373 0.811879
vn 0.577983 -0.426723 0.695589
vn 0.318992 -0.216830 0.922621
s 1
g pPyramid2
usemtl initialShadingGroup
f 7/14/1 9/18/2 11/22/3
f 12/23/4 8/15/5 2/7/6
f 2/7/6 7/13/1 12/23/4
f 25/38/7 26/39/8 6/12/9
f 6/12/9 18/30/10 19/31/11
f 19/31/11 20/32/12 6/12/9
f 6/12/9 24/37/13 25/38/7
f 21/34/14 22/35/15 6/12/9
f 6/12/9 20/32/12 21/33/14
f 17/29/16 18/30/10 6/12/9
f 6/12/9 26/39/8 17/29/16
f 8/16/5 7/14/1 2/2/6
f 1/1/17 9/18/2 8/16/5
f 10/20/18 9/18/2 5/5/19
f 11/22/3 10/20/18 4/4/20
f 7/14/1 11/22/3 3/3/21
f 8/16/5 9/18/2 7/14/1
f 11/22/3 9/18/2 10/20/18
f 23/36/22 24/37/13 6/12/9
f 6/12/9 22/35/15 23/36/22
f 13/24/23 7/13/1 3/8/21
f 3/8/21 11/21/3 13/24/23
f 14/25/24 11/21/3 4/9/20
f 4/9/20 10/19/18 14/25/24
f 15/26/25 10/19/18 5/10/19
f 5/10/19 9/17/2 15/26/25
f 16/27/26 9/17/2 1/11/17
f 1/6/17 8/15/5 16/28/26
f 14/25/24 10/19/18 18/30/10 17/29/16
f 19/31/11 18/30/10 10/19/18 15/26/25
f 15/26/25 9/17/2 20/32/12 19/31/11
f 21/33/14 20/32/12 9/17/2 16/27/26
f 16/28/26 8/15/5 22/35/15 21/34/14
f 23/36/22 22/35/15 8/15/5 12/23/4
f 12/23/4 7/13/1 24/37/13 23/36/22
f 25/38/7 24/37/13 7/13/1 13/24/23
f 13/24/23 11/21/3 26/39/8 25/38/7
f 17/29/16 26/39/8 11/21/3 14/25/24
s 7
f 94//27 105//28 114//29 115//30
f 116//31 32//32 100//33 101//34
f 93//35 103//36 94//27
f 132//37 131//38 42//39 34//40
f 43//41 35//42 130//43 36//44
f 51//45 44//46 144//47 52//48
f 47//49 37//50 133//51 143//52
f 135//53 39//54 77//55 38//56
f 142//57 33//58 40//59 118//60
f 142//57 138//61 41//62 33//58
f 116//31 145//63 33//58 41//62
f 88//64 89//65 34//40 42//39
f 85//66 43//41 36//44 44//46
f 85//66 44//46 51//45 50//67
f 45//68 126//69 46//70 79//71
f 46//70 126//69 37//50 47//49
f 40//59 49//72 83//73 76//74
f 40//59 33//58 91//75 49//72
f 90//76 89//65 75//77 91//75
f 29//78 74//79 85//66 50//67
f 53//80 54//81 69//82 28//83
f 53//80 79//71 80//84 54//81
f 80//84 78//85 55//86 67//87
f 55//86 78//85 48//88 81//89
f 60//90 83//73 49//72 56//91
f 75//77 89//65 88//64 59//92
f 63//93 70//94 86//95 74//79
f 63//93 74//79 29//78 27//96
f 27//96 29//78 57//97 84//98
f 60//90 71//99 61//100 83//73
f 65//101 81//89 77//55 82//102
f 57//97 51//45 52//48 62//103
f 50//67 51//45 57//97 29//78
f 27//96 84//98 73//104 63//93
f 64//105 71//99 60//90 56//91
f 64//105 56//91 75//77 59//92
f 71//99 65//101 82//102 61//100
f 65//101 66//106 55//86 81//89
f 55//86 66//106 72//107 67//87
f 80//84 67//87 68//108 54//81
f 69//82 58//109 62//103 28//83
f 66//106 64//105 59//92 72//107
f 66//106 65//101 71//99 64//105
f 59//92 88//64 70//94 72//107
f 72//107 73//104 68//108 67//87
f 68//108 73//104 84//98 58//109
f 72//107 70//94 63//93 73//104
f 58//109 69//82 54//81 68//108
f 62//103 58//109 84//98 57//97
f 86//95 42//39 131//38 87//110
f 42//39 86//95 70//94 88//64
f 39//54 76//74 82//102 77//55
f 78//85 80//84 79//71 46//70
f 78//85 46//70 47//49 48//88
f 79//71 53//80 52//48 45//68
f 52//48 53//80 28//83 62//103
f 82//102 76//74 83//73 61//100
f 81//89 48//88 38//56 77//55
f 91//75 75//77 56//91 49//72
f 86//95 87//110 35//42 43//41
f 90//76 91//75 33//58 145//63
f 43//41 85//66 74//79 86//95
f 76//74 39//54 118//60 40//59
f 48//88 47//49 143//52 38//56
f 41//62 120//111 32//32 116//31
f 95//112 31//113 92//114 112//115
f 92//114 31//113 104//116 97//117
f 105//28 94//27 103//36
f 103//36 104//116 31//113 30//118
f 31//113 95//112 96//119 30//118
f 96//119 105//28 103//36 30//118
f 110//120 105//28 96//119 95//112
f 97//117 104//116 99//121 98//122
f 103//36 100//33 102//123 104//116
f 100//33 103//36 93//35 101//34
f 32//32 120//111 102//123 100//33
f 104//116 106//124 146//125 99//121
f 137//126 146//125 106//124 121//127
f 122//128 123//129 146//125 137//126
f 146//125 123//129 124//130 99//121
f 98//122 99//121 124//130 108//131
f 108//131 107//132 125//133 109//134
f 97//117 98//122 108//131 109//134
f 110//120 95//112 112//115 113//135
f 92//114 111//136 129//137 112//115
f 92//114 97//117 109//134 111//136
f 113//135 130//43 105//28 110//120
f 114//29 90//76 145//63 115//30
f 115//30 145//63 116//31 101//34
f 101//34 93//35 94//27 115//30
f 105//28 132//37 34//40 114//29
f 113//135 117//138 36//44 130//43
f 129//137 128//139 144//47 117//138
f 134//140 135//53 38//56 143//52
f 122//128 142//57 118//60 136//141
f 138//61 119//142 120//111 41//62
f 119//142 121//127 106//124 120//111
f 119//142 138//61 137//126 121//127
f 133//51 37//50 125//133 107//132
f 125//133 37//50 126//69 127//143
f 125//133 127//143 111//136 109//134
f 111//136 127//143 128//139 129//137
f 130//43 35//42 132//37 105//28
f 113//135 112//115 129//137 117//138
f 45//68 128//139 127//143 126//69
f 141//144 134//140 143//52 133//51
f 122//128 137//126 138//61 142//57
f 136//141 135//53 134//140 139//145
f 136//141 139//145 123//129 122//128
f 139//145 134//140 141//144 140//146
f 139//145 140//146 124//130 123//129
f 140//146 141//144 133//51 107//132
f 140//146 107//132 108//131 124//130
f 39//54 135//53 136//141 118//60
f 52//48 144//47 128//139 45//68
f 132//37 35//42 87//110 131//38
f 34//40 89//65 90//76 114//29
f 117//138 144//47 44//46 36//44
f 106//124 104//116 102//123 120//111
