# This file uses centimeters as units for non-parametric coordinates.

mtllib rock_1.mtl
g default
v -0.380601 -0.546062 0.380601
v -0.166667 -0.546063 0.575508
v 0.166667 -0.546063 0.667114
v 0.380601 -0.546062 0.380601
v -0.500000 -0.166667 0.500000
v -0.213213 -0.259759 0.773524
v 0.213213 -0.259759 0.808971
v 0.500000 -0.166667 0.500000
v -0.500000 0.057903 0.500000
v -0.213213 -0.111326 0.773091
v 0.213213 -0.008753 0.858646
v 0.500000 -0.080584 0.500000
v -0.380601 0.194744 0.380601
v -0.166667 0.250448 0.410905
v 0.166667 0.164465 0.500000
v 0.380601 0.187108 0.380601
v -0.500000 0.251549 0.166667
v -0.213213 0.417432 0.213213
v 0.213213 0.482452 0.213213
v 0.500000 0.203059 0.166667
v -0.468560 0.251549 -0.074175
v -0.213213 0.510508 -0.213213
v 0.213213 0.482452 -0.213213
v 0.500000 0.203059 -0.166667
v -0.352790 0.199968 -0.380601
v -0.166667 0.243725 -0.496322
v 0.166667 0.174802 -0.569304
v 0.371039 0.207221 -0.422552
v -0.500000 0.057903 -0.365262
v -0.213213 0.057903 -0.520853
v 0.213213 0.057903 -0.639639
v 0.500000 0.057903 -0.500000
v -0.465941 -0.141056 -0.447122
v -0.213213 -0.259759 -0.639639
v 0.213213 -0.259759 -0.692869
v 0.500000 -0.310574 -0.500000
v -0.380601 -0.546062 -0.380601
v -0.166667 -0.546063 -0.500000
v 0.166667 -0.546063 -0.500000
v 0.380601 -0.546062 -0.380601
v -0.500000 -0.546063 -0.166667
v -0.166667 -0.546063 -0.166667
v 0.166667 -0.546063 -0.166667
v 0.500000 -0.546063 -0.166667
v -0.500000 -0.546063 0.166667
v -0.166667 -0.546063 0.166667
v 0.166667 -0.546063 0.166667
v 0.500000 -0.546063 0.166667
v 0.734077 -0.259759 -0.213213
v 0.639639 -0.259759 0.213213
v 0.777442 -0.021837 -0.213213
v 0.639639 0.057903 0.213213
v -0.565088 -0.188588 -0.213213
v -0.564550 -0.259759 0.213213
v -0.639639 0.057903 -0.213213
v -0.639639 -0.054870 0.213213
vt 0.375000 0.000000
vt 0.458333 0.000000
vt 0.541667 0.000000
vt 0.625000 0.000000
vt 0.375000 0.083333
vt 0.458333 0.083333
vt 0.541667 0.083333
vt 0.625000 0.083333
vt 0.375000 0.166667
vt 0.458333 0.166667
vt 0.541667 0.166667
vt 0.625000 0.166667
vt 0.375000 0.250000
vt 0.458333 0.250000
vt 0.541667 0.250000
vt 0.625000 0.250000
vt 0.375000 0.333333
vt 0.458333 0.333333
vt 0.541667 0.333333
vt 0.625000 0.333333
vt 0.375000 0.416667
vt 0.458333 0.416667
vt 0.541667 0.416667
vt 0.625000 0.416667
vt 0.375000 0.500000
vt 0.458333 0.500000
vt 0.541667 0.500000
vt 0.625000 0.500000
vt 0.375000 0.583333
vt 0.458333 0.583333
vt 0.541667 0.583333
vt 0.625000 0.583333
vt 0.375000 0.666667
vt 0.458333 0.666667
vt 0.541667 0.666667
vt 0.625000 0.666667
vt 0.375000 0.750000
vt 0.458333 0.750000
vt 0.541667 0.750000
vt 0.625000 0.750000
vt 0.375000 0.833333
vt 0.458333 0.833333
vt 0.541667 0.833333
vt 0.625000 0.833333
vt 0.375000 0.916667
vt 0.458333 0.916667
vt 0.541667 0.916667
vt 0.625000 0.916667
vt 0.375000 1.000000
vt 0.458333 1.000000
vt 0.541667 1.000000
vt 0.625000 1.000000
vt 0.875000 0.000000
vt 0.791667 0.000000
vt 0.708333 0.000000
vt 0.875000 0.083333
vt 0.791667 0.083333
vt 0.708333 0.083333
vt 0.875000 0.166667
vt 0.791667 0.166667
vt 0.708333 0.166667
vt 0.875000 0.250000
vt 0.791667 0.250000
vt 0.708333 0.250000
vt 0.125000 0.000000
vt 0.208333 0.000000
vt 0.291667 0.000000
vt 0.125000 0.083333
vt 0.208333 0.083333
vt 0.291667 0.083333
vt 0.125000 0.166667
vt 0.208333 0.166667
vt 0.291667 0.166667
vt 0.125000 0.250000
vt 0.208333 0.250000
vt 0.291667 0.250000
vn -0.652652 -0.452463 0.607720
vn -0.652652 -0.452463 0.607720
vn -0.652652 -0.452463 0.607720
vn -0.652652 -0.452463 0.607720
vn -0.142340 -0.505217 0.851173
vn -0.142340 -0.505217 0.851173
vn -0.142340 -0.505217 0.851173
vn -0.142340 -0.505217 0.851173
vn 0.731521 -0.399260 0.552692
vn 0.731521 -0.399260 0.552692
vn 0.731521 -0.399260 0.552692
vn 0.731521 -0.399260 0.552692
vn -0.689687 0.000841 0.724107
vn -0.689687 0.000841 0.724107
vn -0.689687 0.000841 0.724107
vn -0.689687 0.000841 0.724107
vn -0.125109 -0.121389 0.984689
vn -0.125109 -0.121389 0.984689
vn -0.125109 -0.121389 0.984689
vn -0.125109 -0.121389 0.984689
vn 0.756553 -0.095337 0.646945
vn 0.756553 -0.095337 0.646945
vn 0.756553 -0.095337 0.646945
vn 0.756553 -0.095337 0.646945
vn -0.236830 0.714581 0.658244
vn -0.236830 0.714581 0.658244
vn -0.236830 0.714581 0.658244
vn -0.236830 0.714581 0.658244
vn -0.152721 0.793582 0.588986
vn -0.152721 0.793582 0.588986
vn -0.152721 0.793582 0.588986
vn -0.152721 0.793582 0.588986
vn 0.521722 0.709685 0.473448
vn 0.521722 0.709685 0.473448
vn 0.521722 0.709685 0.473448
vn 0.521722 0.709685 0.473448
vn -0.406028 0.724183 0.557405
vn -0.406028 0.724183 0.557405
vn -0.406028 0.724183 0.557405
vn -0.406028 0.724183 0.557405
vn -0.063335 0.705329 0.706045
vn -0.063335 0.705329 0.706046
vn -0.063335 0.705329 0.706046
vn -0.063335 0.705329 0.706046
vn 0.514869 0.624596 0.587187
vn 0.514869 0.624596 0.587187
vn 0.514869 0.624596 0.587187
vn 0.514869 0.624596 0.587187
vn -0.606064 0.791198 0.081807
vn -0.606064 0.791198 0.081807
vn -0.606064 0.791198 0.081807
vn -0.606064 0.791198 0.081807
vn -0.043046 0.993176 0.108391
vn -0.043046 0.993176 0.108391
vn -0.043046 0.993176 0.108391
vn -0.043046 0.993176 0.108391
vn 0.697813 0.716280 0.000000
vn 0.697813 0.716280 0.000000
vn 0.697813 0.716280 0.000000
vn 0.697813 0.716280 0.000000
vn -0.667366 0.562833 -0.487690
vn -0.667366 0.562833 -0.487690
vn -0.667366 0.562833 -0.487690
vn -0.667366 0.562833 -0.487690
vn 0.030717 0.743432 -0.668106
vn 0.030717 0.743432 -0.668106
vn 0.030717 0.743432 -0.668106
vn 0.030717 0.743432 -0.668106
vn 0.537888 0.683629 -0.493282
vn 0.537888 0.683629 -0.493282
vn 0.537888 0.683629 -0.493282
vn 0.537888 0.683629 -0.493282
vn -0.494086 0.314689 -0.810463
vn -0.494086 0.314689 -0.810463
vn -0.494086 0.314689 -0.810463
vn -0.494086 0.314689 -0.810463
vn -0.209007 0.292435 -0.933165
vn -0.209007 0.292435 -0.933165
vn -0.209007 0.292435 -0.933165
vn -0.209007 0.292435 -0.933165
vn 0.362671 0.623554 -0.692567
vn 0.362671 0.623554 -0.692567
vn 0.362671 0.623554 -0.692567
vn 0.362671 0.623554 -0.692567
vn -0.472394 0.291860 -0.831662
vn -0.472394 0.291860 -0.831662
vn -0.472394 0.291860 -0.831662
vn -0.472394 0.291860 -0.831662
vn -0.191097 0.256527 -0.947458
vn -0.191097 0.256527 -0.947458
vn -0.191097 0.256527 -0.947458
vn -0.191097 0.256527 -0.947458
vn 0.504833 0.066767 -0.860631
vn 0.504833 0.066767 -0.860631
vn 0.504833 0.066767 -0.860631
vn 0.504833 0.066767 -0.860631
vn -0.581084 -0.332394 -0.742870
vn -0.581084 -0.332394 -0.742870
vn -0.581084 -0.332394 -0.742870
vn -0.581084 -0.332394 -0.742870
vn -0.060477 -0.501246 -0.863189
vn -0.060477 -0.501246 -0.863189
vn -0.060477 -0.501246 -0.863189
vn -0.060477 -0.501246 -0.863189
vn 0.396322 -0.560990 -0.726787
vn 0.396322 -0.560990 -0.726787
vn 0.396322 -0.560990 -0.726787
vn 0.396322 -0.560990 -0.726787
vn -0.000003 -1.000000 -0.000003
vn -0.000003 -1.000000 -0.000003
vn -0.000003 -1.000000 -0.000003
vn -0.000003 -1.000000 -0.000003
vn 0.000000 -1.000000 0.000000
vn 0.000000 -1.000000 0.000000
vn 0.000000 -1.000000 0.000000
vn 0.000000 -1.000000 0.000000
vn 0.000003 -1.000000 -0.000003
vn 0.000003 -1.000000 -0.000003
vn 0.000003 -1.000000 -0.000003
vn 0.000003 -1.000000 -0.000003
vn 0.000000 -1.000000 0.000000
vn 0.000000 -1.000000 0.000000
vn 0.000000 -1.000000 0.000000
vn 0.000000 -1.000000 0.000000
vn 0.000000 -1.000000 0.000000
vn 0.000000 -1.000000 0.000000
vn 0.000000 -1.000000 0.000000
vn 0.000000 -1.000000 0.000000
vn 0.000000 -1.000000 0.000000
vn 0.000000 -1.000000 0.000000
vn 0.000000 -1.000000 0.000000
vn 0.000000 -1.000000 0.000000
vn -0.000003 -1.000000 0.000003
vn -0.000003 -1.000000 0.000003
vn -0.000003 -1.000000 0.000003
vn -0.000003 -1.000000 0.000003
vn 0.000000 -1.000000 0.000000
vn 0.000000 -1.000000 0.000000
vn 0.000000 -1.000000 0.000000
vn 0.000000 -1.000000 0.000000
vn 0.000003 -1.000000 0.000002
vn 0.000003 -1.000000 0.000002
vn 0.000003 -1.000000 0.000002
vn 0.000003 -1.000000 0.000002
vn 0.682878 -0.596656 -0.421519
vn 0.682878 -0.596656 -0.421519
vn 0.682878 -0.596656 -0.421519
vn 0.682878 -0.596656 -0.421519
vn 0.832925 -0.543614 0.103533
vn 0.832925 -0.543614 0.103533
vn 0.832925 -0.543614 0.103533
vn 0.832925 -0.543614 0.103533
vn 0.772099 -0.419451 0.477414
vn 0.772099 -0.419451 0.477414
vn 0.772099 -0.419451 0.477414
vn 0.772099 -0.419451 0.477414
vn 0.743934 -0.053200 -0.666132
vn 0.743934 -0.053200 -0.666132
vn 0.743934 -0.053200 -0.666132
vn 0.743934 -0.053200 -0.666132
vn 0.960352 -0.074958 0.268524
vn 0.960352 -0.074958 0.268524
vn 0.960352 -0.074958 0.268524
vn 0.960352 -0.074958 0.268524
vn 0.899086 0.000000 0.437772
vn 0.899086 0.000000 0.437772
vn 0.899086 0.000000 0.437772
vn 0.899086 0.000000 0.437772
vn 0.585590 0.743197 -0.323640
vn 0.585590 0.743197 -0.323640
vn 0.585590 0.743197 -0.323640
vn 0.585590 0.743197 -0.323640
vn 0.663096 0.747365 0.041831
vn 0.663096 0.747365 0.041831
vn 0.663096 0.747365 0.041831
vn 0.663096 0.747365 0.041831
vn 0.624048 0.595096 0.506384
vn 0.624048 0.595096 0.506384
vn 0.624048 0.595096 0.506384
vn 0.624048 0.595096 0.506384
vn -0.863088 -0.236456 -0.446282
vn -0.863088 -0.236456 -0.446282
vn -0.863088 -0.236456 -0.446282
vn -0.863088 -0.236456 -0.446282
vn -0.980166 -0.197376 -0.017795
vn -0.980166 -0.197377 -0.017795
vn -0.980166 -0.197377 -0.017795
vn -0.980166 -0.197377 -0.017795
vn -0.863343 -0.333062 0.379088
vn -0.863343 -0.333062 0.379088
vn -0.863343 -0.333062 0.379088
vn -0.863343 -0.333062 0.379088
vn -0.839596 -0.106835 -0.532602
vn -0.839596 -0.106835 -0.532602
vn -0.839596 -0.106835 -0.532602
vn -0.839596 -0.106835 -0.532602
vn -0.947059 -0.313965 -0.067119
vn -0.947059 -0.313965 -0.067119
vn -0.947059 -0.313965 -0.067119
vn -0.947059 -0.313965 -0.067119
vn -0.910627 -0.159219 0.381324
vn -0.910627 -0.159219 0.381324
vn -0.910627 -0.159219 0.381324
vn -0.910627 -0.159219 0.381324
vn -0.584475 0.703269 -0.404723
vn -0.584475 0.703269 -0.404723
vn -0.584475 0.703269 -0.404723
vn -0.584475 0.703269 -0.404723
vn -0.852357 0.520766 0.047852
vn -0.852357 0.520766 0.047852
vn -0.852357 0.520766 0.047852
vn -0.852357 0.520766 0.047852
vn -0.756801 0.565193 0.328342
vn -0.756801 0.565193 0.328342
vn -0.756801 0.565193 0.328342
vn -0.756801 0.565193 0.328342
s off
g pCube1
usemtl initialShadingGroup
f 1/1/1 2/2/2 6/6/3 5/5/4
f 2/2/5 3/3/6 7/7/7 6/6/8
f 3/3/9 4/4/10 8/8/11 7/7/12
f 5/5/13 6/6/14 10/10/15 9/9/16
f 6/6/17 7/7/18 11/11/19 10/10/20
f 7/7/21 8/8/22 12/12/23 11/11/24
f 9/9/25 10/10/26 14/14/27 13/13/28
f 10/10/29 11/11/30 15/15/31 14/14/32
f 11/11/33 12/12/34 16/16/35 15/15/36
f 13/13/37 14/14/38 18/18/39 17/17/40
f 14/14/41 15/15/42 19/19/43 18/18/44
f 15/15/45 16/16/46 20/20/47 19/19/48
f 17/17/49 18/18/50 22/22/51 21/21/52
f 18/18/53 19/19/54 23/23/55 22/22/56
f 19/19/57 20/20/58 24/24/59 23/23/60
f 21/21/61 22/22/62 26/26/63 25/25/64
f 22/22/65 23/23/66 27/27/67 26/26/68
f 23/23/69 24/24/70 28/28/71 27/27/72
f 25/25/73 26/26/74 30/30/75 29/29/76
f 26/26/77 27/27/78 31/31/79 30/30/80
f 27/27/81 28/28/82 32/32/83 31/31/84
f 29/29/85 30/30/86 34/34/87 33/33/88
f 30/30/89 31/31/90 35/35/91 34/34/92
f 31/31/93 32/32/94 36/36/95 35/35/96
f 33/33/97 34/34/98 38/38/99 37/37/100
f 34/34/101 35/35/102 39/39/103 38/38/104
f 35/35/105 36/36/106 40/40/107 39/39/108
f 37/37/109 38/38/110 42/42/111 41/41/112
f 38/38/113 39/39/114 43/43/115 42/42/116
f 39/39/117 40/40/118 44/44/119 43/43/120
f 41/41/121 42/42/122 46/46/123 45/45/124
f 42/42/125 43/43/126 47/47/127 46/46/128
f 43/43/129 44/44/130 48/48/131 47/47/132
f 45/45/133 46/46/134 2/50/135 1/49/136
f 46/46/137 47/47/138 3/51/139 2/50/140
f 47/47/141 48/48/142 4/52/143 3/51/144
f 44/54/145 40/53/146 36/56/147 49/57/148
f 48/55/149 44/54/150 49/57/151 50/58/152
f 4/4/153 48/55/154 50/58/155 8/8/156
f 49/57/157 36/56/158 32/59/159 51/60/160
f 50/58/161 49/57/162 51/60/163 52/61/164
f 8/8/165 50/58/166 52/61/167 12/12/168
f 51/60/169 32/59/170 28/62/171 24/63/172
f 52/61/173 51/60/174 24/63/175 20/64/176
f 12/12/177 52/61/178 20/64/179 16/16/180
f 37/65/181 41/66/182 53/69/183 33/68/184
f 41/66/185 45/67/186 54/70/187 53/69/188
f 45/67/189 1/1/190 5/5/191 54/70/192
f 33/68/193 53/69/194 55/72/195 29/71/196
f 53/69/197 54/70/198 56/73/199 55/72/200
f 54/70/201 5/5/202 9/9/203 56/73/204
f 29/71/205 55/72/206 21/75/207 25/74/208
f 55/72/209 56/73/210 17/76/211 21/75/212
f 56/73/213 9/9/214 13/13/215 17/76/216
