# This file uses centimeters as units for non-parametric coordinates.

mtllib rock_2.mtl
g default
v 0.272256 -0.353553 -0.221674
v -0.376170 -0.353553 -0.100639
v -0.001720 -0.353553 0.528000
v 0.180170 -0.353553 0.376116
v 0.000000 0.337616 0.062041
v -0.296965 -0.353553 0.318554
v 0.355308 -0.353553 0.031550
v -0.113141 -0.353553 -0.331124
v -0.028711 -0.353553 0.168107
v 0.141983 0.121890 0.314026
v 0.001512 0.213439 0.497584
v -0.226501 0.104806 0.269571
v -0.287670 0.213439 -0.054165
v -0.084537 0.246843 -0.232165
v 0.213099 0.213439 -0.147638
v 0.277239 0.091673 0.047922
v 0.001868 0.035152 0.631168
v 0.224259 -0.143869 0.530122
v 0.399081 -0.176777 -0.174378
v 0.306681 -0.176777 -0.341401
v -0.029200 -0.176777 -0.406712
v -0.414727 -0.176777 -0.185849
v -0.326607 0.035152 0.352895
vt 0.500000 0.000000
vt 0.250000 0.250000
vt 0.500000 0.500000
vt 0.750000 0.250000
vt 0.250000 0.500000
vt 0.375000 0.500000
vt 0.500000 0.500000
vt 0.625000 0.500000
vt 0.750000 0.500000
vt 0.500000 1.000000
vt 0.437500 0.500000
vt 0.375000 0.375000
vt 0.687500 0.500000
vt 0.625000 0.125000
vt 0.286497 0.500000
vt 0.427007 0.072993
vt 0.500000 0.250000
vt 0.562500 0.750000
vt 0.500000 0.750000
vt 0.468750 0.750000
vt 0.437500 0.750000
vt 0.393248 0.750000
vt 0.625000 0.750000
vt 0.375000 0.750000
vt 0.593750 0.750000
vt 0.500000 0.625000
vt 0.593750 0.625000
vt 0.640625 0.625000
vt 0.687500 0.625000
vt 0.312500 0.625000
vt 0.339873 0.625000
vt 0.406250 0.625000
vt 0.453125 0.625000
vn 0.000000 -1.000000 0.000000
vn 0.000000 -1.000000 0.000000
vn 0.000000 -1.000000 0.000000
vn 0.000000 -1.000000 0.000000
vn 0.228857 0.435811 -0.870456
vn 0.228857 0.435811 -0.870456
vn 0.228857 0.435811 -0.870456
vn 0.228857 0.435811 -0.870456
vn -0.896048 0.431751 0.103390
vn -0.896048 0.431751 0.103390
vn -0.896048 0.431751 0.103390
vn -0.896048 0.431751 0.103390
vn 0.733726 0.499364 0.460739
vn 0.733727 0.499364 0.460740
vn 0.733726 0.499364 0.460739
vn 0.733726 0.499364 0.460739
vn 0.871922 0.431436 -0.231551
vn 0.871922 0.431436 -0.231551
vn 0.871922 0.431436 -0.231551
vn 0.871922 0.431436 -0.231551
vn -0.572987 0.657980 0.488619
vn -0.572987 0.657980 0.488619
vn -0.572987 0.657980 0.488619
vn -0.572987 0.657980 0.488619
vn 0.901551 0.341390 0.265816
vn 0.901551 0.341390 0.265816
vn 0.901551 0.341390 0.265816
vn 0.901551 0.341390 0.265816
vn 0.000000 -1.000000 0.000000
vn 0.000000 -1.000000 0.000000
vn 0.000000 -1.000000 0.000000
vn 0.000000 -1.000000 0.000000
vn 0.000000 -1.000000 0.000000
vn 0.000000 -1.000000 0.000000
vn 0.000000 -1.000000 0.000000
vn 0.000000 -1.000000 0.000000
vn 0.000000 -1.000000 0.000000
vn 0.000000 -1.000000 0.000000
vn 0.000000 -1.000000 0.000000
vn -0.541072 0.337522 -0.770273
vn -0.541072 0.337522 -0.770273
vn -0.541072 0.337522 -0.770273
vn -0.541072 0.337522 -0.770273
vn 0.700475 0.686965 0.193428
vn 0.700475 0.686965 0.193428
vn 0.700475 0.686965 0.193428
vn -0.591920 0.774565 0.222889
vn -0.591920 0.774565 0.222889
vn -0.591920 0.774565 0.222889
vn -0.488381 0.795296 0.359149
vn -0.488381 0.795296 0.359149
vn -0.488381 0.795296 0.359149
vn -0.321918 0.926793 -0.193450
vn -0.321918 0.926793 -0.193450
vn -0.321918 0.926793 -0.193450
vn 0.199899 0.918614 -0.340865
vn 0.199899 0.918614 -0.340865
vn 0.199899 0.918614 -0.340865
vn 0.651673 0.721094 0.235255
vn 0.651674 0.721094 0.235255
vn 0.651674 0.721094 0.235254
vn 0.649823 0.718234 0.248738
vn 0.649823 0.718234 0.248738
vn 0.649823 0.718234 0.248738
vn 0.356465 -0.392745 0.847752
vn 0.356465 -0.392745 0.847752
vn 0.356465 -0.392745 0.847752
vn 0.356465 -0.392745 0.847752
vn 0.933252 -0.169632 0.316646
vn 0.933253 -0.169632 0.316646
vn 0.933253 -0.169632 0.316646
vn 0.933253 -0.169632 0.316646
vn 0.805506 -0.487919 -0.336297
vn 0.805506 -0.487919 -0.336297
vn 0.805506 -0.487919 -0.336297
vn 0.805505 -0.487919 -0.336297
vn 0.200517 -0.524315 -0.827579
vn 0.200517 -0.524315 -0.827579
vn 0.200517 -0.524315 -0.827579
vn 0.200517 -0.524315 -0.827579
vn -0.547129 -0.287330 -0.786188
vn -0.547129 -0.287330 -0.786188
vn -0.547129 -0.287330 -0.786188
vn -0.547129 -0.287330 -0.786188
vn -0.976108 -0.100387 0.192708
vn -0.976108 -0.100387 0.192708
vn -0.976108 -0.100387 0.192708
vn -0.976108 -0.100387 0.192708
vn -0.608253 -0.157974 0.777864
vn -0.608253 -0.157974 0.777864
vn -0.608253 -0.157974 0.777864
vn -0.608253 -0.157974 0.777864
s off
g pPyramid1
usemtl initialShadingGroup
f 8/16/1 9/17/2 6/12/3 2/2/4
f 20/30/5 21/31/6 14/22/7 15/24/8
f 22/32/9 23/33/10 12/20/11 13/21/12
f 17/26/13 18/27/14 10/18/15 11/19/16
f 15/23/17 16/25/18 19/28/19 20/29/20
f 11/19/21 12/20/22 23/33/23 17/26/24
f 18/27/25 19/28/26 16/25/27 10/18/28
f 6/12/29 9/17/30 3/3/31
f 1/1/32 7/14/33 9/17/34 8/16/35
f 3/3/36 9/17/37 7/14/38 4/4/39
f 13/21/40 14/22/41 21/31/42 22/32/43
f 11/19/44 10/18/45 5/10/46
f 5/10/47 12/20/48 11/19/49
f 13/21/50 12/20/51 5/10/52
f 5/10/53 14/22/54 13/21/55
f 15/24/56 14/22/57 5/10/58
f 5/10/59 16/25/60 15/23/61
f 10/18/62 16/25/63 5/10/64
f 3/7/65 4/8/66 18/27/67 17/26/68
f 4/8/69 7/13/70 19/28/71 18/27/72
f 20/29/73 19/28/74 7/13/75 1/9/76
f 1/5/77 8/15/78 21/31/79 20/30/80
f 22/32/81 21/31/82 8/15/83 2/6/84
f 2/6/85 6/11/86 23/33/87 22/32/88
f 17/26/89 23/33/90 6/11/91 3/7/92
